# xmcd
#
# Track frame offsets: 
#        150
#        10279
#        22722
#        37465
#        44353
#        56068
#        61836
#        76534
#        88824
#        97396
#        111586
#        119835
#        133039
#        145339
#        156763
#        168425
#        179994
#        189948
#        205830
#
# Disc length: 3142 seconds
#
# Revision: 4
# Processed by: cddbd v1.5.2PL0 Copyright (c) Steve Scherf et al.
# Submitted via: ExactAudioCopyFreeDBPlugin 1.0
#
DISCID=190c4413
DTITLE=Various Artist - American Roots Music [Palm Pictures]
DYEAR=2001
DGENRE=Country
TTITLE0=Ricky Skaggs, Earl Scruggs, James Cotton and Marc and Ann Savoy 
TTITLE0=/ American Roots Music Theme (country)
TTITLE1=Jimmie Rodgers - Waiting for a Train (country)
TTITLE2=The Carter Family - Wildwood Flower (country)
TTITLE3=Uncle Dave Macon - Take Me Back to My Old Carolina Home (count
TTITLE3=ry)
TTITLE4=Roy Acuff - Wabash Cannonball (country)
TTITLE5=Gene Autry - That Silver Haired Daddy of Mine (country)
TTITLE6=Bob Wills - Sitting on Top of the World (country)
TTITLE7=Bill Monroe - Uncle Pen (country)
TTITLE8=Flatt and Scruggs - Salty Dog Blues (country)
TTITLE9=Merle Travis - Nine-Pound Hammer (country)
TTITLE10=Ernest Tubb - Walking the Floor Over You (country)
TTITLE11=Lefty Frizzell - If You've Got the Money, I've Got the Time (
TTITLE11=country)
TTITLE12=Hank Williams - Cold Cold Heart (country)
TTITLE13=Kitty Wells - It Wasn't God Who Made Honky Tonk Angels (count
TTITLE13=ry)
TTITLE14=Doc Watson - Black Mountain Rag (country)
TTITLE15=Earl Scruggs - Earl's Breakdown (country)
TTITLE16=Ralph Stanley - Little Maggie (country)
TTITLE17=Doyle Lawson and Quicksilver - Where Shades of Love Lie Deep 
TTITLE17=(country)
TTITLE18=Bela Fleck and the Flecktones - Stomping Grounds (country)
EXTD=
EXTT0=
EXTT1=
EXTT2=
EXTT3=
EXTT4=
EXTT5=
EXTT6=
EXTT7=
EXTT8=
EXTT9=
EXTT10=
EXTT11=
EXTT12=
EXTT13=
EXTT14=
EXTT15=
EXTT16=
EXTT17=
EXTT18=
PLAYORDER=
